
<svg version="1.1" id="Icon_Set" xmlns="http://www.w3.org/2000/svg" x="0" y="0" viewBox="0 0 256 256" style="enable-background:new 0 0 256 256" xml:space="preserve"><style>.st0{fill:#4c4372}.st2{fill:#fd919e}.st3{fill:#d3e6f8}.st4{fill:#a4cff2}.st5{fill:#fff}.st6{fill:#7babf1}</style><circle cx="128" cy="128" r="103.5" style="fill:#f0c48a"/><path class="st3" d="M60.707 60.707h134.586v134.586H60.707z"/><path class="st4" d="M181.859 60.707h13.434v134.586h-13.434z"/><path class="st2" d="M154.93 74.141h26.93v26.93h-26.93z"/><path class="st5" d="M128 74.141h26.93v26.93H128z"/><path class="st2" d="M101.07 74.141H128v26.93h-26.93z"/><path class="st5" d="M74.141 74.141h26.93v26.93h-26.93zM154.93 101.07h26.93V128h-26.93z"/><path class="st2" d="M128 101.07h26.93V128H128z"/><path class="st5" d="M101.07 101.07H128V128h-26.93z"/><path class="st2" d="M74.141 101.07h26.93V128h-26.93zM154.93 128h26.93v26.93h-26.93z"/><path class="st5" d="M128 128h26.93v26.93H128z"/><path class="st2" d="M101.07 128H128v26.93h-26.93z"/><path class="st5" d="M74.141 128h26.93v26.93h-26.93zM154.93 154.93h26.93v26.93h-26.93z"/><path class="st2" d="M128 154.93h26.93v26.93H128z"/><path class="st5" d="M101.07 154.93H128v26.93h-26.93z"/><path class="st2" d="M74.141 154.93h26.93v26.93h-26.93z"/><path class="st5" d="M141.465 120.94a6.405 6.405 0 1 1 0-12.81 6.405 6.405 0 1 1 0 12.81zM114.535 147.87a6.405 6.405 0 0 1 0-12.81 6.405 6.405 0 1 1 0 12.81z"/><path class="st6" d="M114.535 120.94a6.405 6.405 0 1 1 0-12.81 6.405 6.405 0 0 1 6.405 6.405 6.404 6.404 0 0 1-6.405 6.405zM141.465 147.87a6.405 6.405 0 0 1 0-12.81 6.405 6.405 0 0 1 0 12.81z"/><path class="st0" d="M195.293 198.293H60.707a3 3 0 0 1-3-3V60.707a3 3 0 0 1 3-3h134.586a3 3 0 0 1 3 3v134.586a3 3 0 0 1-3 3zm-131.586-6h128.586V63.707H63.707v128.586z"/><path class="st0" d="M181.859 184.859H74.141a3 3 0 0 1-3-3V74.141a3 3 0 0 1 3-3H181.86a3 3 0 0 1 3 3V181.86a3.001 3.001 0 0 1-3.001 2.999zm-104.718-6H178.86V77.141H77.141v101.718z"/><path class="st0" d="M181.859 184.859h-26.93a3 3 0 0 1-3-3V74.141a3 3 0 0 1 3-3h26.93a3 3 0 0 1 3 3V181.86a3 3 0 0 1-3 2.999zm-23.929-6h20.93V77.141h-20.93v101.718z"/><path class="st0" d="M154.93 184.859H128a3 3 0 0 1-3-3V74.141a3 3 0 0 1 3-3h26.93a3 3 0 0 1 3 3V181.86a3 3 0 0 1-3 2.999zm-23.93-6h20.93V77.141H131v101.718z"/><path class="st0" d="M128 184.859h-26.93a3 3 0 0 1-3-3V74.141a3 3 0 0 1 3-3H128a3 3 0 0 1 3 3V181.86a3 3 0 0 1-3 2.999zm-23.93-6H125V77.141h-20.93v101.718z"/><path class="st0" d="M101.07 184.859H74.14a3 3 0 0 1-3-3V74.141a3 3 0 0 1 3-3h26.93a3 3 0 0 1 3 3V181.86a3 3 0 0 1-3 2.999zm-23.929-6h20.93V77.141h-20.93v101.718z"/><path class="st0" d="M181.859 184.859H74.141a3 3 0 0 1-3-3v-26.93a3 3 0 0 1 3-3H181.86a3 3 0 0 1 3 3v26.93a3.001 3.001 0 0 1-3.001 3zm-104.718-6H178.86v-20.93H77.141v20.93z"/><path class="st0" d="M181.859 157.93H74.141a3 3 0 0 1-3-3V128a3 3 0 0 1 3-3H181.86a3 3 0 0 1 3 3v26.93a3.002 3.002 0 0 1-3.001 3zm-104.718-6H178.86V131H77.141v20.93z"/><path class="st0" d="M181.859 131H74.141a3 3 0 0 1-3-3v-26.93a3 3 0 0 1 3-3H181.86a3 3 0 0 1 3 3V128a3.001 3.001 0 0 1-3.001 3zm-104.718-6H178.86v-20.93H77.141V125z"/><path class="st0" d="M181.859 104.07H74.141a3 3 0 0 1-3-3V74.14a3 3 0 0 1 3-3H181.86a3 3 0 0 1 3 3v26.93a3.001 3.001 0 0 1-3.001 3zm-104.718-6H178.86V77.14H77.141v20.93zM141.465 123.94c-5.186 0-9.405-4.219-9.405-9.405s4.219-9.405 9.405-9.405 9.405 4.219 9.405 9.405-4.219 9.405-9.405 9.405zm0-12.81c-1.877 0-3.405 1.528-3.405 3.405s1.528 3.405 3.405 3.405 3.405-1.528 3.405-3.405-1.528-3.405-3.405-3.405zM114.535 123.94c-5.186 0-9.405-4.219-9.405-9.405s4.219-9.405 9.405-9.405 9.405 4.219 9.405 9.405-4.219 9.405-9.405 9.405zm0-12.81c-1.877 0-3.405 1.528-3.405 3.405s1.528 3.405 3.405 3.405 3.405-1.528 3.405-3.405-1.527-3.405-3.405-3.405zM114.535 150.87c-5.186 0-9.405-4.219-9.405-9.405s4.219-9.405 9.405-9.405 9.405 4.219 9.405 9.405-4.219 9.405-9.405 9.405zm0-12.81c-1.877 0-3.405 1.528-3.405 3.405s1.528 3.405 3.405 3.405 3.405-1.528 3.405-3.405-1.527-3.405-3.405-3.405zM141.465 150.87c-5.186 0-9.405-4.219-9.405-9.405s4.219-9.405 9.405-9.405 9.405 4.219 9.405 9.405-4.219 9.405-9.405 9.405zm0-12.81c-1.877 0-3.405 1.528-3.405 3.405s1.528 3.405 3.405 3.405 3.405-1.528 3.405-3.405-1.528-3.405-3.405-3.405z"/><path class="st5" d="M192.62 143.677a5.981 5.981 0 0 0-5.981 5.98 5.981 5.981 0 0 0-11.962 0 5.981 5.981 0 0 0-11.962 0v-19.426a5.981 5.981 0 0 0-11.962 0V174.661a5.981 5.981 0 0 0-11.962 0v21.311a5.98 5.98 0 0 0 5.981 5.981h5.981v5.976a6.616 6.616 0 0 0 6.616 6.615h2.418v14.564h29.78v-14.564h2.419a6.616 6.616 0 0 0 6.616-6.615v-58.272a5.983 5.983 0 0 0-5.982-5.98z"/><path class="st3" d="M189.566 214.545h2.419a6.616 6.616 0 0 0 6.616-6.615v-58.07c0-3.029-2.166-5.731-5.169-6.129a5.956 5.956 0 0 0-4.527 1.245v58.927a3.138 3.138 0 0 1-3.138 3.138 3.138 3.138 0 0 0-3.138 3.139v18.93h6.938v-14.565zM145.072 168.696c.024.22.04.443.04.669v-.668l-.04-.001zM169.036 144.361c0-.132.011-.262.02-.392-.012.139-.02.272-.02.392zM180.958 143.691c.025.221.04.443.04.67 0-.226.015-.447.039-.665l-.079-.005z"/><path class="st0" d="M189.566 232.109h-29.78a3 3 0 0 1-3-3v-11.582c-5.033-.301-9.034-4.491-9.034-9.598v-2.976h-2.981c-4.952 0-8.981-4.029-8.981-8.981v-21.311c0-4.952 4.029-8.981 8.981-8.981a8.95 8.95 0 0 1 2.981.508V130.23c0-4.952 4.029-8.98 8.981-8.98s8.981 4.029 8.981 8.98v10.954a8.95 8.95 0 0 1 2.981-.508c2.295 0 4.392.865 5.981 2.287 1.589-1.421 3.687-2.287 5.981-2.287s4.392.865 5.981 2.287a8.947 8.947 0 0 1 5.981-2.287c4.952 0 8.981 4.029 8.981 8.98v58.272c0 5.107-4.001 9.296-9.034 9.598v11.582a3 3 0 0 1-3 3.001zm-26.779-6h23.78v-11.564a3 3 0 0 1 3-3h2.418a3.62 3.62 0 0 0 3.616-3.615v-58.272c0-1.644-1.337-2.98-2.981-2.98s-2.981 1.337-2.981 2.98a3 3 0 1 1-6 0 2.983 2.983 0 0 0-2.981-2.98 2.984 2.984 0 0 0-2.981 2.98 3 3 0 1 1-6 0c0-1.644-1.337-2.98-2.981-2.98s-2.981 1.337-2.981 2.98a3 3 0 1 1-6 0v-19.426c0-1.644-1.337-2.98-2.981-2.98s-2.981 1.337-2.981 2.98v44.431a3 3 0 1 1-6 0c0-1.644-1.337-2.981-2.981-2.981s-2.981 1.337-2.981 2.981v21.311a2.984 2.984 0 0 0 2.981 2.981h5.981a3 3 0 0 1 3 3v5.976a3.62 3.62 0 0 0 3.616 3.615h2.418a3 3 0 0 1 3 3v11.563z"/><path class="st0" d="M150.752 193.872a3 3 0 0 1-3-3v-16.209a3 3 0 1 1 6 0v16.209a3 3 0 0 1-3 3zM162.714 166.103a3 3 0 0 1-3-3v-13.445a3 3 0 1 1 6 0v13.445a3 3 0 0 1-3 3zM174.676 166.103a3 3 0 0 1-3-3v-13.445a3 3 0 1 1 6 0v13.445a3 3 0 0 1-3 3zM186.639 166.103a3 3 0 0 1-3-3v-13.445a3 3 0 1 1 6 0v13.445c0 1.656-1.344 3-3 3z"/><path class="st3" d="M64.246 38.303h35.825a6.847 6.847 0 0 1 6.847 6.847v46.392H57.399V45.149a6.847 6.847 0 0 1 6.847-6.846z"/><path class="st4" d="M100.071 38.303a6.847 6.847 0 0 1 6.847 6.847v46.392h-9.35V38.303h2.503zM66.749 26.891h30.819v11.412H66.749z"/><path class="st6" d="M89.441 26.891h8.127v11.412h-8.127zM66.749 38.513h30.819v24.359c0 8.511-6.899 15.41-15.41 15.41-8.51 0-15.41-6.899-15.41-15.41V38.513z"/><path class="st2" d="M100.728 131.749a6.19 6.19 0 0 0 6.19-6.189V91.541h-12.38v34.018a6.19 6.19 0 0 0 6.19 6.19z"/><path d="M113.108 85.768a6.189 6.189 0 0 0 6.189-6.19V57.523a6.19 6.19 0 0 0-6.189-6.19h-6.19v28.245a6.19 6.19 0 0 0 6.19 6.19z" style="fill:#e8677d"/><path class="st2" d="M88.349 111.646a6.19 6.19 0 0 0 6.189-6.19V91.541H82.159v13.914a6.19 6.19 0 0 0 6.19 6.191z"/><path class="st2" d="M75.969 111.646a6.19 6.19 0 0 0 6.19-6.19V91.541h-12.38v13.914a6.19 6.19 0 0 0 6.19 6.191z"/><path class="st2" d="M63.589 111.646a6.19 6.19 0 0 0 6.19-6.19V91.541h-12.38v13.914a6.191 6.191 0 0 0 6.19 6.191z"/><path class="st0" d="M106.918 94.542H57.399a3 3 0 0 1-3-3V45.149c0-5.43 4.417-9.847 9.847-9.847h35.825c5.43 0 9.847 4.417 9.847 9.847v46.392a3 3 0 0 1-3 3.001zm-46.519-6h43.519V45.149a3.852 3.852 0 0 0-3.847-3.847H64.246a3.852 3.852 0 0 0-3.847 3.847v43.393z"/><path class="st0" d="M97.568 41.303H66.749a3 3 0 0 1-3-3V26.891a3 3 0 0 1 3-3h30.819a3 3 0 0 1 3 3v11.412a3 3 0 0 1-3 3zm-27.819-6h24.819v-5.412H69.749v5.412z"/><path class="st0" d="M82.159 81.282c-10.151 0-18.41-8.258-18.41-18.41V38.513a3 3 0 0 1 3-3h30.819a3 3 0 0 1 3 3v24.359c0 10.151-8.258 18.41-18.409 18.41zm-12.41-39.769v21.359c0 6.843 5.567 12.41 12.41 12.41s12.41-5.567 12.41-12.41V41.513h-24.82zM100.728 134.749c-5.067 0-9.19-4.123-9.19-9.189V91.542a3 3 0 0 1 3-3h12.38a3 3 0 0 1 3 3v34.018c0 5.066-4.123 9.189-9.19 9.189zm-3.19-40.207v31.018c0 1.759 1.431 3.189 3.19 3.189s3.19-1.431 3.19-3.189V94.542h-6.38zM113.108 88.768c-5.067 0-9.19-4.123-9.19-9.19V51.333a3 3 0 0 1 3-3h6.19c5.067 0 9.189 4.123 9.189 9.19v22.055c0 5.068-4.122 9.19-9.189 9.19zm-3.19-34.435v25.245c0 1.759 1.431 3.19 3.19 3.19s3.189-1.431 3.189-3.19V57.523a3.193 3.193 0 0 0-3.189-3.19h-3.19z"/><path class="st0" d="M88.349 114.646c-5.067 0-9.19-4.123-9.19-9.19V91.542a3 3 0 0 1 3-3h12.379a3 3 0 0 1 3 3v13.914c0 5.067-4.122 9.19-9.189 9.19zm-3.19-20.104v10.914c0 1.759 1.431 3.19 3.19 3.19s3.189-1.431 3.189-3.19V94.542h-6.379z"/><g><path class="st0" d="M75.969 114.646c-5.067 0-9.189-4.123-9.189-9.19V91.542a3 3 0 0 1 3-3h12.379a3 3 0 0 1 3 3v13.914c0 5.067-4.123 9.19-9.19 9.19zm-3.19-20.104v10.914c0 1.759 1.431 3.19 3.189 3.19s3.19-1.431 3.19-3.19V94.542h-6.379z"/></g><g><path class="st0" d="M63.589 114.646c-5.067 0-9.19-4.123-9.19-9.19V91.542a3 3 0 0 1 3-3h12.38a3 3 0 0 1 3 3v13.914c0 5.067-4.122 9.19-9.19 9.19zm-3.19-20.104v10.914c0 1.759 1.431 3.19 3.19 3.19s3.19-1.431 3.19-3.19V94.542h-6.38z"/></g></svg>